# xmcd
#
# Track frame offsets:
# 150
# 23412
# 47245
# 71877
#
# Disc length: 1250 seconds
#
#
# Revision: 0
# Processed by: cddbd v1.5.1PL0 Copyright (c) Steve Scherf et al.
# Submitted via: FreeRIP 2.60 
#
DISCID=2f04e004
DTITLE=Richard Marx - Hazard (Single)
DYEAR=1991
DGENRE=Easy Listening
TTITLE0=Hazard (Album Version)
TTITLE1=Should've Known Better (Live)
TTITLE2=Endless Summer Nights (Live)
TTITLE3=Right Here Waiting (Live)
EXTD=YEAR: 1992
EXTT0=
EXTT1=
EXTT2=
EXTT3=
PLAYORDER=
